<svg width="20" height="20" viewBox="0 0 20 20" fill="none" xmlns="http://www.w3.org/2000/svg">
<path d="M16.6667 11.6667C17.5871 11.6667 18.3333 10.9205 18.3333 10C18.3333 9.07953 17.5871 8.33334 16.6667 8.33334C15.7462 8.33334 15 9.07953 15 10C15 10.9205 15.7462 11.6667 16.6667 11.6667Z" stroke="#757B82" stroke-width="1.5" stroke-linecap="round" stroke-linejoin="round"/>
<path d="M16.6667 5C17.5871 5 18.3333 4.25381 18.3333 3.33333C18.3333 2.41286 17.5871 1.66666 16.6667 1.66666C15.7462 1.66666 15 2.41286 15 3.33333C15 4.25381 15.7462 5 16.6667 5Z" stroke="#757B82" stroke-width="1.5" stroke-linecap="round" stroke-linejoin="round"/>
<path d="M16.6667 18.3333C17.5871 18.3333 18.3333 17.5871 18.3333 16.6667C18.3333 15.7462 17.5871 15 16.6667 15C15.7462 15 15 15.7462 15 16.6667C15 17.5871 15.7462 18.3333 16.6667 18.3333Z" stroke="#757B82" stroke-width="1.5" stroke-linecap="round" stroke-linejoin="round"/>
<path d="M3.33334 11.6667C4.25381 11.6667 5.00001 10.9205 5.00001 10C5.00001 9.07953 4.25381 8.33334 3.33334 8.33334C2.41286 8.33334 1.66667 9.07953 1.66667 10C1.66667 10.9205 2.41286 11.6667 3.33334 11.6667Z" stroke="#757B82" stroke-width="1.5" stroke-linecap="round" stroke-linejoin="round"/>
<path d="M5 10H15" stroke="#757B82" stroke-width="1.5" stroke-linecap="round" stroke-linejoin="round"/>
<path d="M15 3.33334H11.6667C10 3.33334 9.16667 4.16667 9.16667 5.83334V14.1667C9.16667 15.8333 10 16.6667 11.6667 16.6667H15" stroke="#757B82" stroke-width="1.5" stroke-linecap="round" stroke-linejoin="round"/>
</svg>
