<svg width="220" height="127" viewBox="0 0 220 127" fill="none" xmlns="http://www.w3.org/2000/svg">
<g clip-path="url(#clip0_141_2439)">
<path d="M2.55862 36.9094C1.7676 36.9094 0.986354 36.5423 0.488306 35.8378C-0.341771 34.677 -0.0878643 33.0399 1.05471 32.1965C1.52346 31.8492 12.7051 23.6141 28.3496 16.7581C49.7364 7.37196 74.1016 2.42095 98.8086 2.41103H98.8282C125.166 2.41103 138.086 5.96306 149.492 9.09837C151.016 9.51509 152.451 9.91196 153.926 10.2989C157.861 11.3407 161.533 12.442 165.078 13.5037C175.498 16.6191 184.512 19.3278 195.82 19.3278C195.996 19.3278 196.182 19.3278 196.357 19.3278C202.139 19.2782 206.514 16.639 207.012 12.9084C207.109 12.1841 206.934 10.7851 206.045 9.89212C205.186 9.03884 203.76 8.76103 201.787 9.08845C200.391 9.30673 199.082 8.34431 198.867 6.91556C198.643 5.49673 199.59 4.15728 200.986 3.92907C205.537 3.20478 208.193 4.74267 209.619 6.17142C211.865 8.41376 212.344 11.5788 212.08 13.6128C211.221 20.0819 204.912 24.4773 196.396 24.5368C184.082 24.636 174.15 21.6595 163.633 18.5043C160.127 17.4526 156.494 16.3612 152.637 15.3492C151.143 14.9523 149.629 14.5356 148.154 14.1387C136.514 10.9339 124.482 7.62993 98.8184 7.62993H98.7989C74.7852 7.62993 51.1133 12.442 30.3516 21.5503C15.2735 28.1682 4.16995 36.3339 4.06253 36.4133C3.60354 36.7506 3.0762 36.9094 2.55862 36.9094Z" fill="black"/>
<path d="M193.086 13.8113C192.393 13.8113 191.699 13.5235 191.191 12.958C188.652 10.0806 188.438 7.38188 188.701 5.62571C189.014 3.5818 190.049 2.09352 190.547 1.36922C190.605 1.29977 190.654 1.23032 190.684 1.18071C191.455 -0.0297616 193.037 -0.357183 194.219 0.426645C195.4 1.2204 195.732 2.83766 194.961 4.03821C194.893 4.13743 194.814 4.25649 194.717 4.3954C193.701 5.85391 193.018 7.24297 194.99 9.46547C195.928 10.537 195.85 12.1841 194.805 13.1465C194.316 13.593 193.701 13.8212 193.086 13.8212V13.8113Z" fill="black"/>
<path d="M24.3945 120.164C24.3457 120.164 24.2969 120.164 24.2481 120.154C23.0859 120.084 21.8457 119.132 21.8359 117.505V117.495C21.8164 116.919 21.5332 113.953 18.5938 113.397C17.207 113.129 16.2891 111.77 16.5527 110.351C16.8066 108.942 18.1445 108.01 19.5313 108.268C25.7227 109.448 26.8945 115.362 26.9531 117.386C26.9531 117.415 26.9531 117.455 26.9531 117.485C26.9531 117.465 26.9531 117.435 26.9531 117.406C26.9531 117.604 26.9531 117.763 26.9336 117.872C26.7773 119.182 25.6836 120.164 24.4043 120.164H24.3945Z" fill="black"/>
<path d="M182.539 10.3684C183.916 10.3684 185.039 9.22735 185.039 7.81845C185.039 6.40954 183.916 5.26852 182.539 5.26852C181.152 5.26852 180.039 6.40954 180.039 7.81845C180.039 9.22735 181.152 10.3684 182.539 10.3684Z" fill="black"/>
<path d="M186.035 6.23094C186.035 6.23094 187.207 7.31243 186.24 9.1579L186.035 6.23094Z" fill="black"/>
<path d="M186.24 9.58453C186.172 9.58453 186.104 9.56469 186.035 9.53492C185.83 9.41586 185.752 9.15789 185.859 8.94953C186.65 7.45133 185.781 6.58813 185.742 6.54844C185.566 6.38969 185.557 6.11188 185.723 5.93328C185.879 5.76461 186.143 5.75469 186.318 5.91344C186.807 6.35992 187.5 7.66961 186.611 9.35633C186.533 9.50516 186.387 9.58453 186.24 9.58453Z" fill="black"/>
<path d="M212.998 18.5043C212.93 18.5043 212.871 18.4845 212.813 18.4646C212.598 18.3555 212.51 18.0975 212.607 17.8792C216.641 9.37617 211.074 5.43719 210.83 5.26852C210.635 5.13953 210.576 4.87164 210.713 4.6732C210.84 4.46484 211.104 4.41523 211.299 4.54422C211.367 4.59383 217.744 9.04875 213.379 18.2563C213.311 18.415 213.154 18.5043 212.998 18.5043Z" fill="black"/>
<path d="M195.889 7.59025C196.191 7.59025 196.426 7.3422 196.426 7.04454C196.426 6.73697 196.191 6.49884 195.889 6.49884C195.596 6.49884 195.361 6.73697 195.361 7.04454C195.361 7.3422 195.596 7.59025 195.889 7.59025Z" fill="black"/>
<path d="M8.34962 127C5.61524 127 3.19337 125.78 1.71876 123.627C-2.79296 117.009 1.98243 107.821 14.8145 98.4448C25.0977 90.9141 45.6934 82.0043 63.7891 77.2517C83.7012 72.0229 111.182 72.4098 133.809 78.2538C150.625 82.5897 160.869 86.0028 177.646 92.8489C200.342 102.116 208.115 97.5618 208.184 97.5122C209.365 96.7085 210.947 97.0459 211.729 98.2365C212.51 99.437 212.188 101.054 211.006 101.848C210.039 102.503 200.84 107.94 175.742 97.6908C159.209 90.934 149.121 87.5804 132.559 83.3041C110.703 77.6684 84.1992 77.2716 65.0586 82.302C47.5098 86.9156 27.627 95.4782 17.7832 102.681C10.3613 108.109 2.80274 116.076 5.91798 120.65C6.74806 121.87 8.28126 121.831 8.89649 121.751C10.3027 121.583 12.2266 120.61 13.0274 118.477C13.5352 117.128 15.0195 116.453 16.3281 116.969C17.6465 117.485 18.3106 118.993 17.8027 120.342C16.4551 123.944 13.2813 126.464 9.51173 126.931C9.11134 126.98 8.73048 127 8.33985 127H8.34962Z" fill="black"/>
<path d="M19.5215 117.872C19.2969 117.872 19.1016 117.683 19.1016 117.445C19.0625 115.858 17.7832 115.689 17.6367 115.669C17.4024 115.649 17.2266 115.441 17.2461 115.203C17.2656 114.965 17.4707 114.786 17.7051 114.806C18.4668 114.866 19.9024 115.501 19.9512 117.425C19.961 117.664 19.7656 117.862 19.541 117.872H19.5215Z" fill="black"/>
<path d="M26.9239 111.72C26.6895 111.72 26.4942 111.532 26.4942 111.294C26.4942 109.657 25.1368 109.488 25.0782 109.478C24.8438 109.458 24.6778 109.24 24.6973 109.002C24.7266 108.764 24.9317 108.595 25.166 108.615C25.918 108.694 27.3438 109.359 27.3535 111.284C27.3535 111.532 27.1582 111.72 26.9239 111.72Z" fill="black"/>
<path d="M33.8086 106.442H33.7891C33.5449 106.422 33.3691 106.214 33.3887 105.976C33.4766 104.567 32.373 104.299 32.2461 104.279C32.0215 104.229 31.8652 104.001 31.9141 103.763C31.9629 103.535 32.1777 103.376 32.4023 103.426C33.0859 103.555 34.3457 104.259 34.2383 106.035C34.2285 106.263 34.0332 106.442 33.8086 106.442Z" fill="black"/>
<path d="M29.8242 109.845C31.2109 109.845 32.3242 108.704 32.3242 107.295C32.3242 105.886 31.2109 104.745 29.8242 104.745C28.4473 104.745 27.3242 105.886 27.3242 107.295C27.3242 108.704 28.4473 109.845 29.8242 109.845Z" fill="black"/>
<path d="M213.418 101.759C213.311 101.759 213.213 101.729 213.125 101.65C212.959 101.491 212.949 101.213 213.096 101.034C213.779 100.27 214.102 99.5065 214.063 98.7524C213.994 97.661 213.154 96.9268 213.145 96.9169C212.969 96.768 212.939 96.4902 213.096 96.3017C213.242 96.1231 213.506 96.0934 213.691 96.2521C213.74 96.2918 214.814 97.2145 214.912 98.6929C214.971 99.6851 214.58 100.677 213.73 101.62C213.652 101.719 213.535 101.769 213.418 101.769V101.759Z" fill="black"/>
<path d="M49.0625 72.4396L47.8516 72.8861V24.1697L49.8633 23.624C51.2207 23.247 52.041 21.8182 51.6699 20.4291C51.3086 19.0401 49.9121 18.2066 48.5449 18.5837L39.9219 20.9252C38.5644 21.2923 37.7539 22.7211 38.1152 24.1201C38.418 25.2809 39.4531 26.0548 40.5859 26.0548C40.8008 26.0548 41.0254 26.0251 41.2402 25.9655L41.4453 25.906L28.3887 66.7742L17.1875 38.2885L18.4277 37.4551C19.6094 36.6713 19.9414 35.054 19.1699 33.8534C18.3984 32.643 16.8164 32.3056 15.6348 33.0895L8.02734 38.1496C6.8457 38.9434 6.51367 40.5507 7.28515 41.7612C7.77344 42.5252 8.59375 42.9419 9.42383 42.9419C9.90234 42.9419 10.3906 42.803 10.8203 42.5152L11.6016 41.9993V90.9241L9.38476 92.3231C8.19336 93.0771 7.82226 94.6845 8.56445 95.9148C9.05273 96.7085 9.88281 97.1451 10.7422 97.1451C11.2012 97.1451 11.6699 97.0161 12.0898 96.7482L19.5996 91.9857C20.791 91.2316 21.1621 89.6243 20.4199 88.394C19.6777 87.1736 18.0957 86.7966 16.8945 87.5606L16.709 87.6796V51.0877L25.2246 72.767C23.2422 73.8287 22.1094 75.5055 21.6992 76.6068C21.1914 77.9463 21.8555 79.4544 23.1738 79.9703C23.4766 80.0894 23.7891 80.139 24.0918 80.139C25.1172 80.139 26.084 79.504 26.4746 78.4721C26.4844 78.4523 27.041 77.1922 28.8965 76.9938C34.1601 76.4381 35.6836 74.4141 36.1035 73.5806C36.7285 72.2908 36.2207 70.7231 34.9512 70.0782C34.2187 69.7111 33.3984 69.7309 32.7051 70.0584L42.7344 38.6854V74.7812L40.4101 75.6444C39.0918 76.1306 38.3984 77.6288 38.8867 78.9881C39.2676 80.0398 40.2441 80.6946 41.2891 80.6946C41.582 80.6946 41.875 80.645 42.168 80.5359L50.8008 77.3311C52.1289 76.835 52.8125 75.3368 52.334 73.9874C51.8457 72.6381 50.3809 71.9336 49.0527 72.4297L49.0625 72.4396Z" fill="black"/>
<path d="M19.2969 85.4571L19.1406 61.5256C19.1406 61.2874 18.9551 61.089 18.7207 61.089C18.4863 61.089 18.291 61.2874 18.291 61.5256L18.4473 85.9433C18.4473 86.0623 18.5059 86.1913 18.6035 86.2707C18.7012 86.3501 18.8281 86.3798 18.9453 86.36C18.9648 86.36 20.4492 86.102 21.416 87.0049C22.0996 87.6399 22.3926 88.7115 22.2754 90.1998C22.2656 90.4379 22.4316 90.6463 22.666 90.6661C22.6855 90.6661 22.6953 90.6661 22.7051 90.6661C22.9297 90.6661 23.1055 90.4875 23.125 90.2692C23.2617 88.4932 22.8711 87.1736 21.9824 86.3501C21.0938 85.5365 19.9414 85.4373 19.2969 85.4571Z" fill="black"/>
<path d="M21.2793 36.1256C21.1231 37.0086 20.5176 37.7428 19.4727 38.3381C19.2871 38.4473 19.209 38.6755 19.2871 38.8739L27.7442 60.2456C27.8125 60.4143 27.9688 60.5135 28.1445 60.5135C28.1934 60.5135 28.252 60.5036 28.3008 60.4838C28.5156 60.3945 28.6231 60.1464 28.5352 59.9182L20.2149 38.9037C21.2988 38.2092 21.9336 37.3261 22.1192 36.2843C22.4805 34.2106 20.8887 32.3056 20.8203 32.2263C20.6641 32.0377 20.4004 32.0179 20.2246 32.1767C20.0391 32.3354 20.0195 32.6132 20.1758 32.7918C20.1856 32.8117 21.5723 34.4686 21.2793 36.1256Z" fill="black"/>
<path d="M36.1231 68.0244L41.1035 52.5661C41.1817 52.328 41.0547 52.0898 40.8301 52.0105C40.6055 51.941 40.3711 52.0601 40.293 52.2883L35.1465 68.2724C35.1074 68.4014 35.127 68.5502 35.2149 68.6693C35.3028 68.7784 35.4297 68.8479 35.5664 68.8479C35.5762 68.8479 36.5625 68.8181 37.1973 69.5226C37.6856 70.0584 37.8711 70.8819 37.7637 71.9832C37.7344 72.2213 37.9102 72.4396 38.1445 72.4595C38.1543 72.4595 38.1738 72.4595 38.1934 72.4595C38.4082 72.4595 38.5938 72.3007 38.6133 72.0725C38.75 70.7033 38.4863 69.6416 37.8223 68.9173C37.2852 68.332 36.6016 68.1137 36.1328 68.0244H36.1231Z" fill="black"/>
<path d="M53.4863 71.1498C52.4902 70.1973 51.1426 70.108 50.4297 70.1477L50.0879 26.0251C51.6406 25.8068 52.7832 25.1817 53.457 24.1498C54.6973 22.2845 53.9648 19.8239 53.9355 19.7247C53.8672 19.4866 53.6328 19.3675 53.4082 19.437C53.1836 19.5064 53.0566 19.7445 53.125 19.9727C53.125 19.9926 53.7598 22.1556 52.7539 23.6637C52.168 24.5567 51.1133 25.0627 49.6289 25.1916C49.4043 25.2115 49.2383 25.4 49.2383 25.6282L49.5801 70.6239C49.5801 70.7529 49.6387 70.872 49.7363 70.9513C49.834 71.0406 49.9609 71.0704 50.0879 71.0506C50.0977 71.0406 51.8164 70.743 52.9004 71.7848C53.6719 72.5091 53.9551 73.7592 53.7598 75.4956C53.7305 75.7238 53.8965 75.942 54.1309 75.9718C54.1504 75.9718 54.1699 75.9718 54.1895 75.9718C54.3945 75.9718 54.5801 75.8131 54.6094 75.5849C54.834 73.5707 54.4629 72.0725 53.4863 71.1399V71.1498Z" fill="black"/>
<path d="M84.8438 60.077C83.4375 60.0571 82.2656 61.1981 82.2461 62.6368L82.1875 65.9408C79.2285 66.2682 71.0254 66.9131 64.8633 68.3617V58.4696C68.5645 58.7177 70.4004 57.1202 71.2207 56.386C72.041 55.9594 72.6172 55.0863 72.6172 54.0643C72.6172 52.6256 71.4746 51.4548 70.0586 51.4548C68.9746 51.4548 68.2813 52.07 67.8711 52.447C67.4219 52.8538 66.7285 53.469 64.8633 53.2408V19.8041L79.2774 17.5121V20.4787C79.2774 21.9174 80.4199 23.0882 81.836 23.0882C83.2422 23.0882 84.3946 21.9174 84.3946 20.4787V14.4661C84.3946 13.7021 84.0625 12.9778 83.4961 12.4817C82.9297 11.9856 82.1778 11.7673 81.4356 11.8864L57.8906 15.6369C56.4942 15.8552 55.5371 17.1946 55.752 18.6134C55.9766 20.0323 57.2852 21.0046 58.6719 20.7863L59.7461 20.6177V52.4966C57.6953 52.6951 55.5274 53.8163 53.7988 56.8424C53.7598 56.9119 53.7305 56.9615 53.7012 57.0111C52.9492 58.2315 53.3106 59.8388 54.5117 60.6028C54.9317 60.8806 55.4004 61.0096 55.8692 61.0096C56.7188 61.0096 57.5488 60.5731 58.0371 59.7892C58.086 59.6999 58.1543 59.5908 58.2227 59.4618C58.7012 58.6184 59.1406 58.0529 59.7461 57.8148V69.7012C59.3164 69.8202 58.8867 69.9492 58.4668 70.0782C57.1094 70.4949 56.3477 71.9534 56.7481 73.3227C57.0801 74.4538 58.0957 75.188 59.1992 75.188C59.4434 75.188 59.6875 75.1483 59.9317 75.0788C70.9473 71.7054 84.7852 70.9315 84.8926 70.9216C86.211 70.8223 87.2461 69.7111 87.2656 68.3617L87.3535 62.7261C87.3731 61.2874 86.25 60.0968 84.8438 60.077Z" fill="black"/>
<path d="M86.2012 12.3924C85.9668 12.3924 85.7715 12.5809 85.7715 12.8191V20.4788C85.7715 20.7169 85.9668 20.9153 86.2012 20.9153C86.4355 20.9153 86.6211 20.7169 86.6211 20.4788V12.8191C86.6211 12.5809 86.4355 12.3924 86.2012 12.3924Z" fill="black"/>
<path d="M66.4746 21.848V50.3138C66.4746 50.5619 66.6602 50.7504 66.8945 50.7504C67.1387 50.7504 67.3242 50.5619 67.3242 50.3138V21.848C67.3242 21.6098 67.1387 21.4114 66.8945 21.4114C66.6602 21.4114 66.4746 21.6098 66.4746 21.848Z" fill="black"/>
<path d="M73.5352 56.5745C73.6133 56.6341 73.7012 56.6638 73.7891 56.6638C73.916 56.6638 74.043 56.6043 74.1309 56.4952C76.1426 53.7766 74.1504 51.0381 74.1309 51.0084C73.9844 50.8198 73.7207 50.7802 73.5352 50.929C73.3496 51.0679 73.3106 51.3457 73.4473 51.5342C73.5157 51.6235 75.0684 53.7865 73.4473 55.9693C73.3106 56.1578 73.3399 56.4356 73.5352 56.5745Z" fill="black"/>
<path d="M66.4746 60.5135V66.0698C66.4746 66.3178 66.6602 66.5063 66.8945 66.5063C67.1387 66.5063 67.3242 66.3178 67.3242 66.0698V60.5135C67.3242 60.2655 67.1387 60.077 66.8945 60.077C66.6602 60.077 66.4746 60.2655 66.4746 60.5135Z" fill="black"/>
<path d="M88.9355 60.9402C88.6914 60.9402 88.5059 61.1287 88.5059 61.3668V68.9868C88.5059 69.2249 88.6914 69.4234 88.9355 69.4234C89.1699 69.4234 89.3555 69.2249 89.3555 68.9868V61.3668C89.3555 61.1287 89.1699 60.9402 88.9355 60.9402Z" fill="black"/>
<path d="M124.834 67.3795L122.852 67.1413L124.424 18.0479L125.762 18.1471C125.82 18.157 125.889 18.157 125.947 18.157C127.275 18.157 128.398 17.1053 128.496 15.7361C128.604 14.2974 127.539 13.0473 126.133 12.9481L118.203 12.3627C116.797 12.2535 115.566 13.335 115.469 14.7737C115.361 16.2124 116.426 17.4625 117.832 17.5617L119.316 17.6709L118.262 50.7702L102.92 50.2245C96.748 50.0459 96.7871 48.131 96.9141 41.8207C96.9238 41.3643 96.9336 40.898 96.9434 40.4316L97.666 15.6865H99.1309C100.537 15.6865 101.68 14.5256 101.68 13.087C101.68 11.6483 100.537 10.4775 99.1309 10.4775H91.084C89.6777 10.4775 88.5254 11.6483 88.5254 13.087C88.5254 14.5256 89.6777 15.6865 91.084 15.6865H92.5488L91.8359 40.2927C91.8359 40.2927 91.8359 40.3225 91.8359 40.3424C91.8262 40.8087 91.8164 41.2651 91.8066 41.7215C91.7383 45.0751 91.6797 48.2402 93.0566 50.8C95.1855 54.7588 99.6289 55.3442 102.764 55.4335L118.096 55.9891L117.754 66.5361L116.338 66.3575C114.932 66.1888 113.662 67.2108 113.496 68.6495C113.33 70.0782 114.336 71.3681 115.742 71.5367L124.238 72.5587C124.346 72.5686 124.443 72.5785 124.541 72.5785C125.82 72.5785 126.924 71.5963 127.08 70.2766C127.246 68.8479 126.24 67.5481 124.834 67.3795Z" fill="black"/>
<path d="M99.2188 17.4625L98.5449 44.5691C98.5449 44.8171 98.7305 45.0156 98.9648 45.0156H98.9746C99.1992 45.0156 99.3945 44.827 99.4043 44.5988L100.059 17.8594C101.25 17.6808 102.168 17.1748 102.812 16.3612C103.994 14.8531 103.76 12.8588 103.75 12.7695C103.711 12.5313 103.506 12.3627 103.271 12.3924C103.037 12.4222 102.871 12.6405 102.9 12.8786C102.9 12.8984 103.096 14.5951 102.139 15.8155C101.582 16.5298 100.732 16.9366 99.5996 17.0359C99.3848 17.0656 99.2188 17.2442 99.2188 17.4625Z" fill="black"/>
<path d="M129.541 18.921C130.898 17.4526 130.752 15.0316 130.742 14.9324C130.723 14.6844 130.518 14.5058 130.293 14.5256C130.059 14.5455 129.873 14.7538 129.893 14.992C129.893 15.0118 130.02 17.1351 128.916 18.3257C128.418 18.8714 127.725 19.1393 126.855 19.1393C126.846 19.1393 126.826 19.1393 126.816 19.1393C126.592 19.1393 126.397 19.3278 126.397 19.5659L124.873 65.4249C124.863 65.6531 125.039 65.8515 125.264 65.8713C125.283 65.8713 126.719 65.9904 127.559 67.1612C128.223 68.0839 128.35 69.4134 127.939 71.1101C127.891 71.3482 128.027 71.5863 128.252 71.6359C128.291 71.6459 128.32 71.6459 128.359 71.6459C128.555 71.6459 128.721 71.5169 128.77 71.3184C129.238 69.3539 129.063 67.7863 128.252 66.6452C127.471 65.5638 126.338 65.1867 125.732 65.0677L127.227 19.9926C128.174 19.9231 128.955 19.556 129.541 18.921Z" fill="black"/>
<path d="M171.875 24.1796L152.1 18.8218C152.1 18.8218 152.09 18.8218 152.08 18.8119L135.566 14.3371C134.805 14.1288 133.984 14.2974 133.35 14.7935C132.725 15.2896 132.354 16.0536 132.354 16.8573V21.7785C132.354 23.2172 133.506 24.388 134.912 24.388C136.328 24.388 137.471 23.2172 137.471 21.7785V20.2506L148.74 23.3065L146.855 54.6596C143.818 54.7092 141.562 56.7432 140.664 58.4597C139.883 59.9579 140.508 61.3966 141.533 62.0415C142.539 62.6864 144.072 62.6269 145.029 61.2676C145.166 61.0791 145.264 60.8806 145.342 60.6822C145.557 60.4044 145.947 60.0373 146.543 59.9083L145.771 72.7373L144.57 72.3702C143.213 71.9634 141.787 72.7373 141.387 74.1263C140.977 75.5055 141.748 76.9541 143.105 77.3708L151.27 79.8513C151.514 79.9306 151.768 79.9703 152.002 79.9703C153.105 79.9703 154.121 79.2361 154.453 78.105C154.854 76.7259 154.092 75.2674 152.734 74.8606L150.801 74.2652L151.533 62.1109C152.266 62.3392 152.998 62.4483 153.74 62.4483C154.736 62.4483 155.742 62.2399 156.729 61.8232L156.787 61.7934C158.066 61.3867 158.828 60.0274 158.506 58.6879C158.174 57.2889 156.787 56.4356 155.42 56.773C155.156 56.8325 154.951 56.9218 154.775 57.0012C154.277 57.2095 153.418 57.5667 151.865 56.5547L153.779 24.6658L168.662 28.704V32.4346C168.662 33.8832 169.805 35.0441 171.221 35.0441C172.627 35.0441 173.779 33.8832 173.779 32.4346V26.6998C173.779 25.5191 172.988 24.4773 171.875 24.1796Z" fill="black"/>
<path d="M138.926 22.4135C138.701 22.483 138.574 22.731 138.643 22.9592C138.682 23.0981 139.004 24.3384 137.754 24.7848C137.539 24.8642 137.422 25.1123 137.5 25.3405C137.559 25.5191 137.725 25.6282 137.9 25.6282C137.949 25.6282 137.988 25.6183 138.037 25.6084C139.678 25.013 139.688 23.4553 139.453 22.7013C139.385 22.473 139.15 22.3441 138.926 22.4135Z" fill="black"/>
<path d="M155.43 28.0491L153.955 54.6795C153.936 54.9176 154.121 55.1259 154.355 55.1359C154.355 55.1359 154.365 55.1359 154.375 55.1359C154.6 55.1359 154.785 54.9573 154.805 54.7192L156.279 28.0888C156.299 27.8507 156.113 27.6423 155.879 27.6324C155.645 27.6225 155.449 27.8011 155.43 28.0392V28.0491Z" fill="black"/>
<path d="M175.674 26.2334C175.439 26.2334 175.244 26.422 175.244 26.6601V33.149C175.244 33.3871 175.439 33.5756 175.674 33.5756C175.908 33.5756 176.094 33.3871 176.094 33.149V26.6601C176.094 26.422 175.908 26.2334 175.674 26.2334Z" fill="black"/>
<path d="M160.088 56.8523C159.912 56.7035 159.639 56.7234 159.492 56.902C159.336 57.0905 159.356 57.3683 159.541 57.5171C159.609 57.5766 161.133 58.926 159.688 60.9104C159.551 61.1088 159.59 61.3767 159.775 61.5256C159.854 61.5851 159.941 61.6049 160.029 61.6049C160.166 61.6049 160.293 61.5454 160.371 61.4263C161.904 59.3229 160.859 57.5072 160.098 56.8523H160.088Z" fill="black"/>
<path d="M155.43 80.9923C155.361 80.9923 155.283 80.9724 155.215 80.9327C155.01 80.8137 154.941 80.5557 155.059 80.3473C156.162 78.3431 156.426 76.7159 155.859 75.5055C155.098 73.8783 153.008 73.5112 152.988 73.5112C152.773 73.4814 152.617 73.273 152.627 73.0548L153.213 64.4426C153.232 64.2044 153.438 64.0259 153.662 64.0457C153.906 64.0655 154.082 64.264 154.063 64.5021L153.506 72.7373C154.248 72.9456 155.879 73.5509 156.631 75.1284C157.324 76.6068 157.051 78.5019 155.801 80.774C155.713 80.9129 155.576 80.9923 155.42 80.9923H155.43Z" fill="black"/>
<path d="M202.5 90.7256L200.635 90.2692L199.199 70.7033L203.789 65.4149C204.727 64.3434 204.629 62.6963 203.574 61.7438C202.51 60.7814 200.898 60.8905 199.961 61.9621L198.672 63.4504L196.572 34.7365L198.135 35.0341C198.291 35.0639 198.447 35.0838 198.604 35.0838C199.814 35.0838 200.879 34.2106 201.113 32.9505C201.367 31.5317 200.459 30.1724 199.072 29.9145L194.522 29.0413C194.473 29.0314 194.414 29.0116 194.365 29.0016C194.229 28.962 194.082 28.9421 193.955 28.9322L188.613 27.9202C187.227 27.6523 185.889 28.5849 185.635 30.0038C185.371 31.4127 186.289 32.7819 187.676 33.0398L189.697 33.4268L175.137 58.3605L173.779 54.4413C173.311 53.092 171.846 52.3776 170.518 52.8638C169.189 53.34 168.486 54.8283 168.965 56.1876L171.748 64.1846L163.418 78.4423L162.344 78.0355C161.025 77.5295 159.551 78.2141 159.053 79.5635C158.555 80.9129 159.229 82.4111 160.547 82.9171L167.9 85.7349C168.203 85.8441 168.506 85.8937 168.799 85.8937C169.834 85.8937 170.811 85.2487 171.191 84.207C171.689 82.8576 171.025 81.3594 169.697 80.8534L168.281 80.3077L173.965 70.5743L179.766 87.243C180.068 88.1063 180.801 88.7512 181.68 88.9298C181.846 88.9595 182.012 88.9794 182.168 88.9794C182.891 88.9794 183.594 88.6619 184.082 88.0963L194.473 76.1504L195.42 88.9992L193.994 88.652C192.617 88.3146 191.24 89.1778 190.908 90.5768C190.576 91.9758 191.426 93.3847 192.793 93.7121L201.309 95.7957C201.514 95.8453 201.709 95.8751 201.914 95.8751C203.066 95.8751 204.111 95.0714 204.395 93.8709C204.727 92.4719 203.877 91.063 202.51 90.7256H202.5ZM183.135 81.3296L177.363 64.7502L191.836 39.9653L193.945 68.8975L183.135 81.3296Z" fill="black"/>
<path d="M175 54.3024C175.068 54.481 175.225 54.5802 175.4 54.5802C175.449 54.5802 175.498 54.5703 175.547 54.5505C175.771 54.4711 175.879 54.2131 175.791 53.9949L175.107 52.1791C175.02 51.9509 174.775 51.8418 174.551 51.9311C174.336 52.0105 174.219 52.2684 174.307 52.4867L175 54.3024Z" fill="black"/>
<path d="M199.033 36.8498C198.896 36.8201 198.77 36.8598 198.662 36.9491C198.564 37.0384 198.516 37.1773 198.525 37.3063L200.303 59.6404C200.322 59.8686 200.508 60.0472 200.723 60.0472C200.742 60.0472 200.752 60.0472 200.762 60.0472C200.996 60.0273 201.172 59.819 201.152 59.5709L199.414 37.7527C200.068 37.7825 201.201 37.6734 202.197 36.8895C203.311 36.0065 203.926 34.5281 204.023 32.4941C204.033 32.256 203.857 32.0477 203.623 32.0377C203.379 32.0179 203.184 32.2064 203.174 32.4445C203.086 34.2106 202.578 35.4707 201.68 36.195C200.518 37.1277 199.043 36.8498 199.033 36.8498Z" fill="black"/>
<path d="M206.406 90.7355C205.488 89.1977 203.779 88.6718 203.037 88.5131L201.709 71.8741L205.43 67.6771C205.586 67.5084 205.576 67.2306 205.4 67.0719C205.225 66.9032 204.961 66.923 204.795 67.1016L200.957 71.4375C200.879 71.5268 200.84 71.6459 200.85 71.7649L202.217 88.9198C202.227 89.1282 202.383 89.2969 202.588 89.3167C202.607 89.3167 204.736 89.6045 205.674 91.192C206.289 92.2238 206.279 93.603 205.664 95.2798C205.586 95.508 205.693 95.756 205.918 95.8453C205.967 95.8552 206.016 95.8652 206.064 95.8652C206.24 95.8652 206.396 95.7659 206.465 95.5873C207.178 93.6427 207.158 92.0056 206.396 90.7355H206.406Z" fill="black"/>
<path d="M193.604 80.5259C193.428 80.3672 193.154 80.387 193.008 80.5755L186.26 88.6023C186.104 88.7809 186.123 89.0588 186.299 89.2175C186.377 89.287 186.484 89.3167 186.582 89.3167C186.699 89.3167 186.816 89.2671 186.904 89.1679L193.652 81.1411C193.809 80.9625 193.789 80.6847 193.604 80.5259Z" fill="black"/>
<path d="M190.215 46.9206C190.01 46.8015 189.756 46.8709 189.629 47.0793L179.424 64.8891C179.365 64.9982 179.355 65.1272 179.395 65.2463L183.145 76.6663C183.203 76.8449 183.369 76.964 183.555 76.964C183.594 76.964 183.643 76.9541 183.691 76.9342C183.916 76.8648 184.033 76.6167 183.955 76.3885L180.264 65.157L190.371 47.5159C190.488 47.3075 190.42 47.0396 190.215 46.9206Z" fill="black"/>
<path d="M172.207 79.127L173.809 76.3687C173.926 76.1603 173.857 75.8924 173.662 75.7734C173.457 75.6543 173.193 75.7238 173.076 75.9321L171.299 79.0079C171.182 79.2063 171.24 79.4544 171.426 79.5834C171.553 79.6727 174.619 81.8852 172.158 86.1516C172.041 86.36 172.109 86.618 172.305 86.747C172.373 86.7866 172.451 86.8065 172.529 86.8065C172.666 86.8065 172.812 86.7271 172.891 86.5882C175.264 82.4806 173.076 79.9108 172.217 79.127H172.207Z" fill="black"/>
</g>
<defs>
<clipPath id="clip0_141_2439">
<rect width="220" height="127" fill="white"/>
</clipPath>
</defs>
</svg>
